<?xml version="1.0" encoding="UTF-8" standalone="no"?>
<!-- Created with Inkscape (http://www.inkscape.org/) -->

<svg
   xmlns:dc="http://purl.org/dc/elements/1.1/"
   xmlns:cc="http://creativecommons.org/ns#"
   xmlns:rdf="http://www.w3.org/1999/02/22-rdf-syntax-ns#"
   xmlns:svg="http://www.w3.org/2000/svg"
   xmlns="http://www.w3.org/2000/svg"
   xmlns:sodipodi="http://sodipodi.sourceforge.net/DTD/sodipodi-0.dtd"
   xmlns:inkscape="http://www.inkscape.org/namespaces/inkscape"
   width="1024"
   height="1024"
   viewBox="0 0 270.93333 270.93334"
   version="1.1"
   id="svg8"
   inkscape:version="0.91 r13725"
   sodipodi:docname="icon.svg"
   inkscape:export-filename="D:\Documents\Pictures\Workshop\LZWolf\LZWolf.svg.png"
   inkscape:export-xdpi="96"
   inkscape:export-ydpi="96">
  <title
     id="title4826">LZWolf Logo</title>
  <defs
     id="defs2">
    <filter
       inkscape:collect="always"
       style="color-interpolation-filters:sRGB"
       id="filter4739"
       x="-0.019590605"
       width="1.0391812"
       y="-0.01779878"
       height="1.0355976">
      <feGaussianBlur
         inkscape:collect="always"
         stdDeviation="0.64359896"
         id="feGaussianBlur4741" />
    </filter>
    <filter
       inkscape:collect="always"
       style="color-interpolation-filters:sRGB"
       id="filter4747"
       x="-0.0059815575"
       width="1.0119631"
       y="-0.0089539874"
       height="1.017908">
      <feGaussianBlur
         inkscape:collect="always"
         stdDeviation="0.64359896"
         id="feGaussianBlur4749" />
    </filter>
    <filter
       inkscape:collect="always"
       style="color-interpolation-filters:sRGB"
       id="filter4739-7"
       x="-0.019590605"
       width="1.0391812"
       y="-0.01779878"
       height="1.0355976">
      <feGaussianBlur
         inkscape:collect="always"
         stdDeviation="0.64359896"
         id="feGaussianBlur4741-0" />
    </filter>
  </defs>
  <sodipodi:namedview
     id="base"
     pagecolor="#ffffff"
     bordercolor="#666666"
     borderopacity="1.0"
     inkscape:pageopacity="0"
     inkscape:pageshadow="2"
     inkscape:zoom="0.35"
     inkscape:cx="1706.2921"
     inkscape:cy="912.19684"
     inkscape:document-units="mm"
     inkscape:current-layer="layer1"
     showgrid="true"
     units="px"
     guidetolerance="20"
     showguides="false"
     inkscape:window-width="1600"
     inkscape:window-height="876"
     inkscape:window-x="0"
     inkscape:window-y="24"
     inkscape:window-maximized="1">
    <inkscape:grid
       type="xygrid"
       id="grid4824" />
  </sodipodi:namedview>
  <metadata
     id="metadata5">
    <rdf:RDF>
      <cc:Work
         rdf:about="">
        <dc:format>image/svg+xml</dc:format>
        <dc:type
           rdf:resource="http://purl.org/dc/dcmitype/StillImage" />
        <dc:title>LZWolf Logo</dc:title>
        <dc:creator>
          <cc:Agent>
            <dc:title>Paul &quot;NeuralStunner&quot; Lawrence</dc:title>
          </cc:Agent>
        </dc:creator>
      </cc:Work>
    </rdf:RDF>
  </metadata>
  <g
     id="g4617"
     inkscape:label="Shadow"
     transform="translate(4.2333333,-21.83332)">
    <path
       inkscape:label="ShadowE"
       sodipodi:nodetypes="ccccccccccccccccccccc"
       inkscape:connector-curvature="0"
       id="path4569"
       d="m 49.2125,33.474983 0,0.529167 17.4625,17.4625 0,50.8 -17.4625,17.4625 0,0.52917 69.85,0 8.99583,-8.99584 0,-19.049997 -0.52916,0 -8.99584,8.995837 -32.80833,0 0,-14.81667 0,-19.05 0,-14.816667 4.082139,0 8.99584,8.995834 0.52916,0 0,-19.05 -8.99583,-8.995834 z"
       style="opacity:0.5;fill:#000000;fill-opacity:1;stroke:none;stroke-width:0.13229167;stroke-linecap:butt;stroke-linejoin:miter;stroke-miterlimit:4;stroke-dasharray:none;stroke-opacity:1;filter:url(#filter4739)" />
    <path
       sodipodi:nodetypes="ccccccccccccccccccccccccccccccccccc"
       inkscape:label="ShadowW"
       inkscape:connector-curvature="0"
       id="path4573"
       d="m 135.46667,117.61248 17.99166,17.99167 v 91.01667 L 168.275,211.80415 v -41.80417 l 35.45417,-35.45416 h 0.52916 v 34.39583 h 60.325 v 0.52917 l -52.3875,52.3875 h -7.9375 v 51.32916 h -0.52916 l -34.39584,-34.39583 -15.875,15.875 v 17.4625 L 135.46667,290.12082 117.475,272.12915 v -17.4625 L 101.6,238.79165 67.204167,273.18748 H 66.675 V 221.85832 H 58.7375 L 6.35,169.47082 v -0.52917 h 60.325 v -34.39583 h 0.529167 l 35.454163,35.45416 v 41.80417 l 14.81667,14.81667 v -91.01667 z"
       style="opacity:0.5;fill:#000000;fill-opacity:1;stroke:none;stroke-width:0.13229167;stroke-linecap:butt;stroke-linejoin:miter;stroke-miterlimit:4;stroke-dasharray:none;stroke-opacity:1;filter:url(#filter4747)" />
  </g>
  <g
     inkscape:groupmode="layer"
     id="layer2"
     inkscape:label="BG" />
  <g
     inkscape:label="FG"
     inkscape:groupmode="layer"
     id="layer1"
     transform="translate(0,-26.06665)">
    <g
       id="g4567"
       inkscape:label="MainW"
       style="display:inline">
      <path
         sodipodi:nodetypes="ccccccccccccccccccccccccccccccccccc"
         inkscape:label="WLine"
         inkscape:connector-curvature="0"
         id="path4557"
         d="m 135.46667,117.61248 17.99166,17.99167 v 91.01667 L 168.275,211.80415 v -41.80417 l 35.45417,-35.45416 h 0.52916 v 34.39583 h 60.325 v 0.52917 l -52.3875,52.3875 h -7.9375 v 51.32916 h -0.52916 l -34.39584,-34.39583 -15.875,15.875 v 17.4625 L 135.46667,290.12082 117.475,272.12915 v -17.4625 L 101.6,238.79165 67.204167,273.18748 H 66.675 V 221.85832 H 58.7375 L 6.35,169.47082 v -0.52917 h 60.325 v -34.39583 h 0.529167 l 35.454163,35.45416 v 41.80417 l 14.81667,14.81667 v -91.01667 z"
         style="fill:#000000;fill-opacity:1;stroke:none;stroke-width:0.13229167;stroke-linecap:butt;stroke-linejoin:miter;stroke-miterlimit:4;stroke-dasharray:none;stroke-opacity:1" />
      <path
         inkscape:label="WBorder"
         sodipodi:nodetypes="ccccccccccccccccccccccccccccccccccccccccccccccc"
         inkscape:connector-curvature="0"
         id="path4560"
         d="m 135.46667,119.99373 15.875,15.875 v 94.45625 h 0.79375 l 18.25625,-18.25625 v -41.80416 l 31.75,-31.75 v 32.54375 h 58.47291 l -14.81666,14.81666 h -43.65625 v 2.11667 h 41.53958 l -14.81667,14.81667 h -26.72291 v 2.11666 h 24.60625 l -14.81667,14.81667 h -9.78958 v 49.47708 l -32.80834,-32.80833 -17.99166,17.99167 v 17.4625 l -15.875,15.875 -15.875,-15.875 v -17.4625 L 101.6,236.4104 68.791667,269.21873 V 219.74165 H 59.002083 L 44.185417,204.92498 h 24.60625 v -2.11666 H 42.06875 L 27.252083,187.99165 h 41.539584 l -10e-7,-2.11667 H 25.135417 L 10.31875,171.05832 h 58.472917 v -32.54375 l 31.750003,31.75 v 41.80416 l 18.25625,18.25625 h 0.79375 v -94.45625 z"
         style="fill:#ffffff;fill-opacity:1;stroke:none;stroke-width:0.13229167;stroke-linecap:butt;stroke-linejoin:miter;stroke-miterlimit:4;stroke-dasharray:none;stroke-opacity:1" />
      <path
         style="fill:#0000c0;fill-opacity:1;stroke:none;stroke-width:0.13229167;stroke-linecap:butt;stroke-linejoin:miter;stroke-miterlimit:4;stroke-dasharray:none;stroke-opacity:1"
         d="m 135.46667,122.90415 13.75833,13.75833 v 95.77917 h 3.70417 l 19.57916,-19.57917 V 171.05832 L 200.025,143.54165 v 29.63333 h 55.5625 l -10.58333,10.58334 H 200.025 v 6.35 h 38.62917 l -10.58334,10.58333 H 200.025 v 6.35 h 21.69583 L 211.1375,217.62498 H 200.025 v 46.56667 l -30.1625,-30.1625 h -1.05833 L 149.225,253.60832 v 17.4625 l -13.75833,13.75833 -13.75834,-13.75833 v -17.4625 l -19.57916,-19.57917 h -1.05834 l -30.162497,30.1625 v -46.56667 h -11.1125 L 49.2125,207.04165 h 21.695833 v -6.35 H 42.8625 L 32.279167,190.10832 h 38.629166 v -6.35 H 25.929167 L 15.345833,173.17498 h 55.5625 V 143.54165 L 98.425,171.05832 v 41.80416 l 19.57917,19.57917 h 3.70416 v -95.77917 z"
         id="path4562"
         inkscape:connector-curvature="0"
         sodipodi:nodetypes="ccccccccccccccccccccccccccccccccccccccccccccccccc"
         inkscape:label="WFill" />
    </g>
    <g
       id="g4555"
       inkscape:label="MainC" />
    <g
       id="g4546"
       inkscape:label="MainE">
      <path
         inkscape:label="ELine"
         sodipodi:nodetypes="ccccccccccccccccccccc"
         inkscape:connector-curvature="0"
         id="path4533"
         d="m 49.2125,33.474983 0,0.529167 17.4625,17.4625 0,50.8 -17.4625,17.4625 0,0.52917 69.85,0 8.99583,-8.99584 0,-19.049997 -0.52916,0 -8.99584,8.995837 -32.80833,0 0,-14.81667 0,-19.05 0,-14.816667 4.082139,0 8.99584,8.995834 0.52916,0 0,-19.05 -8.99583,-8.995834 z"
         style="fill:#000000;fill-opacity:1;stroke:none;stroke-width:0.13229167;stroke-linecap:butt;stroke-linejoin:miter;stroke-miterlimit:4;stroke-dasharray:none;stroke-opacity:1" />
      <path
         inkscape:label="EBorder"
         style="fill:#ffffff;fill-opacity:1;stroke:none;stroke-width:0.13229167;stroke-linecap:butt;stroke-linejoin:miter;stroke-miterlimit:4;stroke-dasharray:none;stroke-opacity:1"
         d="m 53.18125,35.59165 15.610417,15.610417 0,51.329163 -15.610417,15.61042 65.61667,0 7.14375,-7.14375 0,-14.816667 -7.14375,7.143747 -35.189587,0 0,-19.049997 0,-14.816666 0,-19.05 6.463396,0 7.14375,7.14375 0,-14.816667 -7.14375,-7.14375 z"
         id="path4535"
         inkscape:connector-curvature="0"
         sodipodi:nodetypes="ccccccccccccccccc" />
      <path
         inkscape:label="EFill"
         sodipodi:nodetypes="ccccccccccccccccc"
         inkscape:connector-curvature="0"
         id="path4537"
         d="m 58.208333,37.708317 12.7,12.7 0,52.916663 -12.7,12.7 59.795837,0 5.82083,-5.82083 0,-8.99583 -4.23333,4.23333 -38.100003,0 0,-23.283333 0,-10.583334 0,-23.283333 9.373812,0 4.23333,4.233333 0,-8.995833 -5.82083,-5.820833 z"
         style="fill:#0000c0;fill-opacity:1;stroke:none;stroke-width:0.13229167;stroke-linecap:butt;stroke-linejoin:miter;stroke-miterlimit:4;stroke-dasharray:none;stroke-opacity:1" />
    </g>
    <path
       inkscape:label="ShadowE"
       sodipodi:nodetypes="cccccccccccccccc"
       inkscape:connector-curvature="0"
       id="path4569-9"
       d="m 152.53623,49.557584 0.37798,20.939883 8.66177,-9.10495 43.57454,-0.45785 -36.85268,45.886303 -17.4625,17.4625 0,0.52917 69.85,0 8.99583,-8.99584 0,-19.049991 -0.52916,0 -8.99584,8.995831 -31.29643,0 36.47471,-48.796725 -0.1134,-16.479761 z"
       style="opacity:0.5;fill:#000000;fill-opacity:1;stroke:none;stroke-width:0.13229167;stroke-linecap:butt;stroke-linejoin:miter;stroke-miterlimit:4;stroke-dasharray:none;stroke-opacity:1;filter:url(#filter4739-7)" />
    <path
       inkscape:label="ELine"
       sodipodi:nodetypes="ccccccccccccccccc"
       inkscape:connector-curvature="0"
       id="path4533-3"
       d="m 149.94287,67.867475 10.47757,-10.771084 36.80361,0.05333 -50.62204,62.900419 0,0.52917 69.85,0 8.99583,-8.99584 0,-19.049996 -0.52916,0 -8.99584,8.995836 -29.04756,0 35.18393,-46.774852 0.0919,-16.635649 -19.05335,-0.05545 -44.42403,-0.599578 -8.80799,9.568751 z"
       style="fill:#000000;fill-opacity:1;stroke:none;stroke-width:0.13229167;stroke-linecap:butt;stroke-linejoin:miter;stroke-miterlimit:4;stroke-dasharray:none;stroke-opacity:1" />
    <path
       inkscape:label="EBorder"
       style="fill:#ffffff;fill-opacity:1;stroke:none;stroke-width:0.13229167;stroke-linecap:butt;stroke-linejoin:miter;stroke-miterlimit:4;stroke-dasharray:none;stroke-opacity:1"
       d="m 151.77347,62.90687 8.05392,-7.890986 41.11973,0.07387 -50.37636,63.372886 65.61667,0 7.14375,-7.14375 0,-14.816662 -7.14375,7.143742 -33.20521,0 37.94718,-49.5734 -0.17825,-13.841119 -13.38275,0.08078 -48.53954,-0.445703 -7.05991,7.80598 z"
       id="path4535-6"
       inkscape:connector-curvature="0"
       sodipodi:nodetypes="ccccccccccccccc" />
    <path
       inkscape:label="EFill"
       sodipodi:nodetypes="cccccccccccccc"
       inkscape:connector-curvature="0"
       id="path4537-0"
       d="m 153.86059,58.742702 5.432,-5.233939 44.70663,-0.226483 -48.40138,63.06369 59.79584,0 5.82083,-5.82083 0,-8.99583 -4.23333,4.23333 -37.62753,0 40.23797,-51.834637 -0.16511,-12.116055 -60.23061,-0.137948 -5.41437,5.843381 z"
       style="fill:#ff0000;fill-opacity:1;stroke:none;stroke-width:0.13229167;stroke-linecap:butt;stroke-linejoin:miter;stroke-miterlimit:4;stroke-dasharray:none;stroke-opacity:1" />
    <path
       style="fill:#ff0000"
       d="m 244.88622,315.54075 23.47798,-23.49393 0,-99.98948 0,-99.989471 -23.98323,-23.998855 -23.98323,-23.998857 58.09236,0 58.09235,0 11.34774,11.380022 11.34774,11.380022 0,16.122937 0,16.122936 -7.85103,-7.804984 -7.85103,-7.804984 -17.90786,0 -17.90786,0 0,108.591394 0,108.5914 71.95102,0 71.95102,0 7.85104,-7.80498 7.85102,-7.80498 0,16.62657 0,16.62657 -10.33601,10.37131 -10.33602,10.37131 -112.64199,0 -112.642,0 23.47799,-23.49395 z"
       id="path3450"
       inkscape:connector-curvature="0"
       transform="matrix(0.26458334,0,0,0.26458336,-8.0744428e-6,26.066642)" />
    <path
       style="fill:#ff0000"
       d="m 486.29733,951.43253 -26.00415,-26.01857 0,-32.82794 0,-32.82793 -37.12815,-37.11798 c -23.97205,-23.96549 -37.84107,-37.11799 -39.14009,-37.11799 -1.31178,0 -21.78683,19.77258 -58.83634,56.81773 l -56.8244,56.81773 0,-87.62738 0,-87.62738 -20.97038,0 -20.97038,0 -19.67854,-19.69798 -19.67855,-19.69797 40.64893,0 40.64892,0 0,-12.62691 0,-12.6269 -53.29552,0 -53.29551,0 -19.17296,-19.1929 -19.17296,-19.1929 72.46848,0 72.46847,0 0,-12.62691 0,-12.6269 -85.11507,0 -85.115062,0 -19.678545,-19.69798 -19.678546,-19.69797 104.793613,0 104.79361,0 0,-55.80721 0,-55.80722 51.51778,51.51035 51.51778,51.51036 0,79.3058 0,79.30581 37.12816,37.11799 37.12815,37.11798 7.31856,0 7.31855,0 0,-181.07727 0,-181.07727 25.75889,-25.74404 25.75889,-25.74403 25.75889,25.74403 25.75889,25.74404 0,181.07727 0,181.07727 7.32873,0 7.32873,0 37.11798,-37.12816 37.11799,-37.12815 0,-78.79057 0,-78.79055 51.51778,-51.51036 51.51778,-51.51035 0,55.30214 0,55.30214 104.79361,0 104.79361,0 -19.67854,19.69797 -19.67855,19.69798 -85.14616,0 -85.14616,0 0.28363,12.37436 0.28363,12.37437 72.20915,0.25934 72.20915,0.25934 -19.16617,19.1861 -19.16617,19.1861 -53.29552,0 -53.29551,0 0,12.6269 0,12.62691 40.64892,0 40.64893,0 -19.67855,19.69797 -19.67855,19.69798 -20.97037,0 -20.97038,0 0,87.12227 0,87.12227 -56.31936,-56.31262 c -44.40118,-44.39586 -56.85414,-56.31262 -58.84651,-56.31262 -1.977,0 -10.60744,8.08252 -39.64513,37.12816 l -37.11799,37.12816 0,33.33741 0,33.33741 -25.51363,25.49892 -25.51365,25.49893 -26.00413,-26.01858 z"
       id="path3452"
       inkscape:connector-curvature="0"
       transform="matrix(0.26458334,0,0,0.26458336,-8.0744428e-6,26.066642)" />
  </g>
</svg>
